#!OML:ASF H:\Dans Jumps\Project 1\Capture day 1\Session 1\subject.ASF
:FULLY-SPECIFIED
:DEGREES
424
root 0.277423 17.9344 4.01449 11.435 2.01509 -1.91445
lowerback -1.38384 0.411072 0.0299449
upperback 2.27158 0.504524 1.56903
thorax 3.09472 0.23234 1.61638
lowerneck -10.9384 -1.21035 -2.27914
upperneck 32.7544 -1.81506 1.9595
head 12.7323 -0.818575 0.906792
rclavicle 3.03147e-015 -6.36111e-015
rhumerus -28.7109 -8.19549 -83.7901
rradius 31.368
rwrist 29.1248
rhand -28.2403 -30.5864
rfingers 7.12502
rthumb -1.61796 -60.56
lclavicle 3.03147e-015 -6.36111e-015
lhumerus -38.9702 -0.580484 83.6091
lradius 19.4779
lwrist 4.08576
lhand -22.7957 -5.52815
lfingers 7.12502
lthumb 3.6404 24.4205
rfemur -15.3651 -2.09636 20.2896
rtibia 18.7075
rfoot -10.2532 0.531823
rtoes 16.5966
lfemur -15.8135 6.1135 -17.0735
ltibia 18.28
lfoot -6.60068 5.42225
ltoes -1.03444
425
root 0.272815 17.9352 4.03824 11.5058 1.98671 -1.86607
lowerback -1.52492 0.424089 -0.0104024
upperback 2.2508 0.523681 1.51256
thorax 3.15247 0.241468 1.58293
lowerneck -10.9372 -1.20916 -2.2676
upperneck 32.8105 -1.82989 1.99926
head 12.7564 -0.818646 0.918478
rclavicle -5.46658e-016 -1.19271e-015
rhumerus -28.9107 -7.70639 -83.9439
rradius 31.5662
rwrist 29.1443
rhand -28.321 -30.6288
rfingers 7.12502
rthumb -1.69592 -60.6018
lclavicle -5.46658e-016 -1.19271e-015
lhumerus -38.8582 0.419865 82.937
lradius 18.9095
lwrist 2.98976
lhand -23.3296 -5.73356
lfingers 7.12502
lthumb 3.12484 24.2233
rfemur -15.3237 -2.19746 20.2759
rtibia 18.6455
rfoot -10.3025 0.60634
rtoes 16.8852
lfemur -15.6916 6.24055 -17.129
ltibia 18.0858
lfoot -6.65859 5.36951
ltoes -0.912928
426
root 0.268022 17.9371 4.06146 11.5714 1.97716 -1.79321
lowerback -1.66325 0.424739 -0.0698301
upperback 2.22603 0.527263 1.45452
thorax 3.20486 0.242426 1.55788
lowerneck -10.9374 -1.20159 -2.26075
upperneck 32.8561 -1.83245 2.0338
head 12.776 -0.814576 0.930608
rclavicle 8.94531e-016 -1.35174e-014
rhumerus -29.0982 -7.29078 -84.0681
rradius 31.7262
rwrist 29.2677
rhand -28.4121 -30.6644
rfingers 7.12502
rthumb -1.78392 -60.6366
lclavicle 8.94531e-016 -1.35174e-014
lhumerus -38.8182 1.14663 82.4422
lradius 18.5609
lwrist 2.44075
lhand -23.8075 -5.82414
lfingers 7.12502
lthumb 2.66324 24.139
rfemur -15.2845 -2.34419 20.2441
rtibia 18.6011
rfoot -10.3499 0.688166
rtoes 17.1921
lfemur -15.5728 6.36564 -17.2137
ltibia 17.8913
lfoot -6.68898 5.29946
ltoes -0.771762
427
root 0.263211 17.9398 4.08409 11.6345 1.99398 -1.71422
lowerback -1.80093 0.412472 -0.128644
upperback 2.19674 0.513739 1.40154
thorax 3.25266 0.234835 1.53689
lowerneck -10.9418 -1.18746 -2.255
upperneck 32.8917 -1.82118 2.05667
head 12.7917 -0.806024 0.940263
rclavicle -8.44835e-016 9.54166e-015
rhumerus -29.2686 -6.96504 -84.1564
rradius 31.8467
rwrist 29.4545
rhand -28.5014 -30.6989
rfingers 7.12502
rthumb -1.87014 -60.6704
lclavicle -8.44835e-016 9.54166e-015
lhumerus -38.8345 1.59106 82.1345
lradius 18.4136
lwrist 2.39133
lhand -24.2268 -5.83714
lfingers 7.12502
lthumb 2.25832 24.1307
rfemur -15.2465 -2.52443 20.213
rtibia 18.567
rfoot -10.3995 0.764822
rtoes 17.4941
lfemur -15.4707 6.47222 -17.3028
ltibia 17.7149
lfoot -6.70452 5.21889
ltoes -0.607143
428
root 0.258444 17.9426 4.10566 11.6935 2.0361 -1.63921
lowerback -1.93461 0.390274 -0.176073
upperback 2.16633 0.486619 1.35558
thorax 3.29747 0.220666 1.516
lowerneck -10.952 -1.1723 -2.25208
upperneck 32.9116 -1.80499 2.07218
head 12.802 -0.796575 0.948114
rclavicle -9.34288e-015 7.55382e-015
rhumerus -29.42 -6.7371 -84.2081
rradius 31.936
rwrist 29.658
rhand -28.5723 -30.7371
rfingers 7.12502
rthumb -1.93863 -60.708
lclavicle -9.34288e-015 7.55382e-015
lhumerus -38.8895 1.75987 82.0092
lradius 18.4593
lwrist 2.78217
lhand -24.5431 -5.72501
lfingers 7.12502
lthumb 1.9528 24.2458
rfemur -15.2068 -2.71516 20.1901
rtibia 18.5368
rfoot -10.4523 0.820379
rtoes 17.7714
lfemur -15.3927 6.54478 -17.3819
ltibia 17.5738
lfoot -6.71552 5.14124
ltoes -0.441983
429
root 0.253988 17.9449 4.12622 11.7448 2.0938 -1.57843
lowerback -2.06393 0.36307 -0.201247
upperback 2.13938 0.451914 1.31822
thorax 3.34371 0.203124 1.491
lowerneck -10.9627 -1.15821 -2.25798
upperneck 32.9092 -1.78765 2.0873
head 12.8029 -0.787778 0.957343
rclavicle -8.34896e-015 -1.17283e-014
rhumerus -29.5507 -6.60007 -84.2251
rradius 32.0025
rwrist 29.8248
rhand -28.6189 -30.7847
rfingers 7.12502
rthumb -1.98366 -60.7553
lclavicle -8.34896e-015 -1.17283e-014
lhumerus -38.9618 1.69617 82.04
lradius 18.6557
lwrist 3.48253
lhand -24.7731 -5.54179
lfingers 7.12502
lthumb 1.73069 24.4309
rfemur -15.1612 -2.90026 20.1821
rtibia 18.5075
rfoot -10.5095 0.856378
rtoes 18.0203
lfemur -15.3352 6.57113 -17.4374
ltibia 17.4777
lfoot -6.73262 5.0866
ltoes -0.291267
430
root 0.249778 17.9463 4.14526 11.7868 2.15959 -1.53691
lowerback -2.18472 0.334865 -0.202503
upperback 2.11878 0.414747 1.291
thorax 3.39185 0.184777 1.46275
lowerneck -10.9716 -1.1481 -2.27771
upperneck 32.8782 -1.77393 2.10749
head 12.7917 -0.781649 0.970227
rclavicle -8.59744e-015 -3.57812e-015
rhumerus -29.6573 -6.54461 -84.2094
rradius 32.0482
rwrist 29.9123
rhand -28.6509 -30.8353
rfingers 7.12502
rthumb -2.01456 -60.8056
lclavicle -8.59744e-015 -3.57812e-015
lhumerus -39.0365 1.44734 82.1972
lradius 18.9772
lwrist 4.37939
lhand -24.8988 -5.2839
lfingers 7.12502
lthumb 1.60935 24.6898
rfemur -15.1115 -3.06633 20.1923
rtibia 18.4799
rfoot -10.5726 0.870768
rtoes 18.2387
lfemur -15.2976 6.55327 -17.4631
ltibia 17.429
lfoot -6.7629 5.05911
ltoes -0.172611
431
root 0.245902 17.9464 4.16297 11.8196 2.22207 -1.51023
lowerback -2.29862 0.310002 -0.184729
upperback 2.10383 0.381105 1.27028
thorax 3.44189 0.16855 1.43054
lowerneck -10.976 -1.14337 -2.30996
upperneck 32.8222 -1.76683 2.13456
head 12.7695 -0.779129 0.986839
rclavicle 1.77415e-014 1.11319e-014
rhumerus -29.7407 -6.56821 -84.1645
rradius 32.0675
rwrist 29.9021
rhand -28.6647 -30.8877
rfingers 7.12502
rthumb -2.02789 -60.8578
lclavicle 1.77415e-014 1.11319e-014
lhumerus -39.1101 1.05703 82.4491
lradius 19.3921
lwrist 5.36378
lhand -24.9476 -5.00706
lfingers 7.12502
lthumb 1.56218 24.967
rfemur -15.0591 -3.21185 20.2136
rtibia 18.4556
rfoot -10.6434 0.876355
rtoes 18.4295
lfemur -15.2731 6.49955 -17.4652
ltibia 17.4233
lfoot -6.81119 5.06083
ltoes -0.101118
